<svg width="257" height="172" viewBox="0 0 257 172" fill="none" xmlns="http://www.w3.org/2000/svg">
<g clip-path="url(#clip0_83_5)">
<g filter="url(#filter0_d_83_5)">
<mask id="path-1-inside-1_83_5" fill="white">
<path d="M72.0615 0C80.2105 0 86.8163 6.60597 86.8164 14.7549C86.8163 22.9038 80.2105 29.5098 72.0615 29.5098H30.0098V142.386H72.0615C80.2105 142.386 86.8164 148.992 86.8164 157.141C86.8163 165.29 80.2105 171.896 72.0615 171.896H15.3311C15.3058 171.896 15.2802 171.896 15.2549 171.896C15.0048 171.896 14.7559 171.889 14.5088 171.877C14.4965 171.876 14.484 171.876 14.4717 171.875C12.0124 171.746 9.71341 171.015 7.71777 169.826C7.17013 169.5 6.64435 169.141 6.14551 168.749C5.12336 167.946 4.20965 167.011 3.43066 165.969C2.79343 165.117 2.24598 164.193 1.80273 163.213C1.75349 163.104 1.70584 162.994 1.65918 162.884C1.5659 162.663 1.47821 162.44 1.39551 162.214C1.31277 161.988 1.23493 161.759 1.16309 161.528C1.09123 161.297 1.02452 161.064 0.963867 160.828C0.903252 160.592 0.848916 160.354 0.799805 160.114C0.627834 159.274 0.527333 158.407 0.504883 157.521C0.501687 157.395 0.500001 157.268 0.5 157.141V14.7549C0.500002 14.5005 0.505828 14.2473 0.518555 13.9961C0.550406 13.3674 0.622337 12.749 0.730469 12.1436C0.795366 11.7802 0.872887 11.421 0.963867 11.0674C1.02451 10.8317 1.09125 10.5982 1.16309 10.3672C1.23493 10.1362 1.31278 9.90759 1.39551 9.68164C1.47819 9.45582 1.56592 9.23221 1.65918 9.01172C2.17242 7.79825 2.84351 6.66738 3.64648 5.64551C4.01156 5.18094 4.40406 4.73853 4.82129 4.32129C4.90456 4.23802 4.98899 4.15549 5.07422 4.07422C5.24508 3.91131 5.42012 3.75229 5.59863 3.59766C5.77697 3.44317 5.95984 3.29338 6.14551 3.14746C6.3311 3.00161 6.52028 2.85965 6.71289 2.72266C7.09856 2.44836 7.49822 2.19198 7.91016 1.95508C8.11601 1.8367 8.32516 1.72283 8.53711 1.61426C8.64305 1.55999 8.75001 1.50684 8.85742 1.45508C10.2552 0.781502 11.7757 0.321558 13.376 0.118164C13.7448 0.0712813 14.1183 0.0386562 14.4951 0.0195312C14.7467 0.0067738 15.0002 4.32308e-06 15.2549 0H72.0615ZM242.126 0.00488281C244.784 0.0722095 247.267 0.841818 249.396 2.13574C249.701 2.32057 249.998 2.516 250.287 2.72168C250.48 2.85869 250.669 3.0006 250.854 3.14648C251.04 3.29256 251.223 3.443 251.401 3.59766C252.294 4.37079 253.093 5.24944 253.778 6.21387C254.327 6.98512 254.803 7.81127 255.197 8.68262C255.394 9.11826 255.57 9.56551 255.725 10.0225C255.763 10.1368 255.801 10.2517 255.837 10.3672C256.196 11.5224 256.418 12.7385 256.481 13.9961C256.488 14.1216 256.492 14.2477 256.495 14.374L256.5 14.7549V157.142C256.5 157.396 256.494 157.649 256.481 157.9C256.45 158.529 256.378 159.147 256.27 159.753C256.248 159.874 256.225 159.995 256.2 160.115C256.102 160.595 255.981 161.067 255.837 161.529C255.765 161.76 255.687 161.989 255.604 162.215C255.48 162.554 255.345 162.887 255.197 163.214C254.754 164.194 254.207 165.118 253.569 165.97C253.459 166.117 253.346 166.262 253.23 166.404C252.01 167.916 250.497 169.181 248.778 170.115C248.465 170.286 248.144 170.445 247.817 170.593C246.183 171.331 244.391 171.781 242.505 171.877C242.253 171.89 242 171.896 241.745 171.896H184.938C176.79 171.896 170.184 165.29 170.184 157.142C170.184 148.993 176.79 142.386 184.938 142.386H226.99V29.5098H184.938C176.79 29.5096 170.184 22.9037 170.184 14.7549C170.184 6.60599 176.79 0.000131949 184.938 0H241.745L242.126 0.00488281ZM197.711 50.9053C206.547 50.9055 213.711 58.0688 213.711 66.9053V104.991C213.711 113.828 206.547 120.991 197.711 120.991H94.7021C85.8656 120.991 78.7021 113.828 78.7021 104.991V66.9053C78.7021 58.0687 85.8656 50.9053 94.7021 50.9053H197.711ZM69.8496 109.187C71.8869 109.187 73.5381 110.839 73.5381 112.876C73.5379 114.913 71.8867 116.564 69.8496 116.564H52.1436C50.1064 116.564 48.4553 114.913 48.4551 112.876C48.4551 110.839 50.1063 109.187 52.1436 109.187H69.8496ZM58.0459 95.9072C60.083 95.9074 61.7344 97.5595 61.7344 99.5967C61.7342 101.634 60.0829 103.285 58.0459 103.285H40.3398C38.3027 103.285 36.6505 101.634 36.6504 99.5967C36.6504 97.5594 38.3026 95.9072 40.3398 95.9072H58.0459ZM63.9463 82.6279C65.9834 82.628 67.6347 84.2793 67.6348 86.3164C67.6348 88.3536 65.9835 90.0048 63.9463 90.0049H46.2402C44.203 90.0049 42.5518 88.3537 42.5518 86.3164C42.5519 84.2792 44.2031 82.6279 46.2402 82.6279H63.9463ZM69.8496 69.3486C71.8867 69.3486 73.5379 71 73.5381 73.0371C73.5381 75.0744 71.8869 76.7266 69.8496 76.7266H52.1436C50.1063 76.7266 48.4551 75.0744 48.4551 73.0371C48.4553 71 50.1064 69.3486 52.1436 69.3486H69.8496ZM64.6846 56.0693C66.7218 56.0693 68.374 57.7206 68.374 59.7578C68.3739 61.795 66.7218 63.4463 64.6846 63.4463H46.9785C44.9414 63.4462 43.2901 61.7949 43.29 59.7578C43.29 57.7207 44.9414 56.0695 46.9785 56.0693H64.6846Z"/>
</mask>
<path d="M72.0615 0C80.2105 0 86.8163 6.60597 86.8164 14.7549C86.8163 22.9038 80.2105 29.5098 72.0615 29.5098H30.0098V142.386H72.0615C80.2105 142.386 86.8164 148.992 86.8164 157.141C86.8163 165.29 80.2105 171.896 72.0615 171.896H15.3311C15.3058 171.896 15.2802 171.896 15.2549 171.896C15.0048 171.896 14.7559 171.889 14.5088 171.877C14.4965 171.876 14.484 171.876 14.4717 171.875C12.0124 171.746 9.71341 171.015 7.71777 169.826C7.17013 169.5 6.64435 169.141 6.14551 168.749C5.12336 167.946 4.20965 167.011 3.43066 165.969C2.79343 165.117 2.24598 164.193 1.80273 163.213C1.75349 163.104 1.70584 162.994 1.65918 162.884C1.5659 162.663 1.47821 162.44 1.39551 162.214C1.31277 161.988 1.23493 161.759 1.16309 161.528C1.09123 161.297 1.02452 161.064 0.963867 160.828C0.903252 160.592 0.848916 160.354 0.799805 160.114C0.627834 159.274 0.527333 158.407 0.504883 157.521C0.501687 157.395 0.500001 157.268 0.5 157.141V14.7549C0.500002 14.5005 0.505828 14.2473 0.518555 13.9961C0.550406 13.3674 0.622337 12.749 0.730469 12.1436C0.795366 11.7802 0.872887 11.421 0.963867 11.0674C1.02451 10.8317 1.09125 10.5982 1.16309 10.3672C1.23493 10.1362 1.31278 9.90759 1.39551 9.68164C1.47819 9.45582 1.56592 9.23221 1.65918 9.01172C2.17242 7.79825 2.84351 6.66738 3.64648 5.64551C4.01156 5.18094 4.40406 4.73853 4.82129 4.32129C4.90456 4.23802 4.98899 4.15549 5.07422 4.07422C5.24508 3.91131 5.42012 3.75229 5.59863 3.59766C5.77697 3.44317 5.95984 3.29338 6.14551 3.14746C6.3311 3.00161 6.52028 2.85965 6.71289 2.72266C7.09856 2.44836 7.49822 2.19198 7.91016 1.95508C8.11601 1.8367 8.32516 1.72283 8.53711 1.61426C8.64305 1.55999 8.75001 1.50684 8.85742 1.45508C10.2552 0.781502 11.7757 0.321558 13.376 0.118164C13.7448 0.0712813 14.1183 0.0386562 14.4951 0.0195312C14.7467 0.0067738 15.0002 4.32308e-06 15.2549 0H72.0615ZM242.126 0.00488281C244.784 0.0722095 247.267 0.841818 249.396 2.13574C249.701 2.32057 249.998 2.516 250.287 2.72168C250.48 2.85869 250.669 3.0006 250.854 3.14648C251.04 3.29256 251.223 3.443 251.401 3.59766C252.294 4.37079 253.093 5.24944 253.778 6.21387C254.327 6.98512 254.803 7.81127 255.197 8.68262C255.394 9.11826 255.57 9.56551 255.725 10.0225C255.763 10.1368 255.801 10.2517 255.837 10.3672C256.196 11.5224 256.418 12.7385 256.481 13.9961C256.488 14.1216 256.492 14.2477 256.495 14.374L256.5 14.7549V157.142C256.5 157.396 256.494 157.649 256.481 157.9C256.45 158.529 256.378 159.147 256.27 159.753C256.248 159.874 256.225 159.995 256.2 160.115C256.102 160.595 255.981 161.067 255.837 161.529C255.765 161.76 255.687 161.989 255.604 162.215C255.48 162.554 255.345 162.887 255.197 163.214C254.754 164.194 254.207 165.118 253.569 165.97C253.459 166.117 253.346 166.262 253.23 166.404C252.01 167.916 250.497 169.181 248.778 170.115C248.465 170.286 248.144 170.445 247.817 170.593C246.183 171.331 244.391 171.781 242.505 171.877C242.253 171.89 242 171.896 241.745 171.896H184.938C176.79 171.896 170.184 165.29 170.184 157.142C170.184 148.993 176.79 142.386 184.938 142.386H226.99V29.5098H184.938C176.79 29.5096 170.184 22.9037 170.184 14.7549C170.184 6.60599 176.79 0.000131949 184.938 0H241.745L242.126 0.00488281ZM197.711 50.9053C206.547 50.9055 213.711 58.0688 213.711 66.9053V104.991C213.711 113.828 206.547 120.991 197.711 120.991H94.7021C85.8656 120.991 78.7021 113.828 78.7021 104.991V66.9053C78.7021 58.0687 85.8656 50.9053 94.7021 50.9053H197.711ZM69.8496 109.187C71.8869 109.187 73.5381 110.839 73.5381 112.876C73.5379 114.913 71.8867 116.564 69.8496 116.564H52.1436C50.1064 116.564 48.4553 114.913 48.4551 112.876C48.4551 110.839 50.1063 109.187 52.1436 109.187H69.8496ZM58.0459 95.9072C60.083 95.9074 61.7344 97.5595 61.7344 99.5967C61.7342 101.634 60.0829 103.285 58.0459 103.285H40.3398C38.3027 103.285 36.6505 101.634 36.6504 99.5967C36.6504 97.5594 38.3026 95.9072 40.3398 95.9072H58.0459ZM63.9463 82.6279C65.9834 82.628 67.6347 84.2793 67.6348 86.3164C67.6348 88.3536 65.9835 90.0048 63.9463 90.0049H46.2402C44.203 90.0049 42.5518 88.3537 42.5518 86.3164C42.5519 84.2792 44.2031 82.6279 46.2402 82.6279H63.9463ZM69.8496 69.3486C71.8867 69.3486 73.5379 71 73.5381 73.0371C73.5381 75.0744 71.8869 76.7266 69.8496 76.7266H52.1436C50.1063 76.7266 48.4551 75.0744 48.4551 73.0371C48.4553 71 50.1064 69.3486 52.1436 69.3486H69.8496ZM64.6846 56.0693C66.7218 56.0693 68.374 57.7206 68.374 59.7578C68.3739 61.795 66.7218 63.4463 64.6846 63.4463H46.9785C44.9414 63.4462 43.2901 61.7949 43.29 59.7578C43.29 57.7207 44.9414 56.0695 46.9785 56.0693H64.6846Z" fill="white"/>
<path d="M86.8164 14.7549L87.8164 14.7549L87.8164 14.7549L86.8164 14.7549ZM30.0098 29.5098V28.5098H29.0098V29.5098H30.0098ZM30.0098 142.386H29.0098V143.386H30.0098V142.386ZM86.8164 157.141L87.8164 157.141L87.8164 157.141L86.8164 157.141ZM15.3311 171.896L15.3311 170.895L15.3258 170.896L15.3311 171.896ZM15.2549 171.896L15.2549 172.896H15.2549V171.896ZM14.5088 171.877L14.459 172.876L14.459 172.876L14.5088 171.877ZM14.4717 171.875L14.4194 172.874L14.4195 172.874L14.4717 171.875ZM7.71777 169.826L8.2294 168.967L8.22938 168.967L7.71777 169.826ZM6.14551 168.749L5.52761 169.535L5.52764 169.535L6.14551 168.749ZM3.43066 165.969L4.23152 165.37L4.2315 165.37L3.43066 165.969ZM1.80273 163.213L0.891516 163.625L0.891534 163.625L1.80273 163.213ZM1.65918 162.884L2.58021 162.494L2.58019 162.494L1.65918 162.884ZM1.39551 162.214L0.456462 162.558L0.456477 162.558L1.39551 162.214ZM1.16309 161.528L2.11798 161.231L2.11797 161.231L1.16309 161.528ZM0.963867 160.828L-0.00460442 161.077L-0.00459298 161.077L0.963867 160.828ZM0.799805 160.114L1.77951 159.914L1.7795 159.914L0.799805 160.114ZM0.504883 157.521L-0.494797 157.547L-0.494796 157.547L0.504883 157.521ZM0.5 157.141L-0.5 157.141L-0.5 157.141L0.5 157.141ZM0.5 14.7549L-0.5 14.7549V14.7549H0.5ZM0.518555 13.9961L-0.480164 13.9455L-0.480165 13.9455L0.518555 13.9961ZM0.730469 12.1436L-0.253955 11.9677L-0.253956 11.9677L0.730469 12.1436ZM0.963867 11.0674L-0.00459105 10.8182L-0.00459628 10.8182L0.963867 11.0674ZM1.16309 10.3672L0.208209 10.0702L0.208206 10.0702L1.16309 10.3672ZM1.39551 9.68164L0.456481 9.3378L0.456473 9.33782L1.39551 9.68164ZM1.65918 9.01172L0.738171 8.62218L0.738167 8.62219L1.65918 9.01172ZM3.64648 5.64551L2.86021 5.02763L2.86019 5.02765L3.64648 5.64551ZM4.82129 4.32129L4.11418 3.61418L4.11418 3.61419L4.82129 4.32129ZM5.07422 4.07422L4.38416 3.35047L4.38414 3.35049L5.07422 4.07422ZM5.59863 3.59766L4.94389 2.8418L4.94389 2.84181L5.59863 3.59766ZM6.14551 3.14746L5.52761 2.3612L5.52759 2.36122L6.14551 3.14746ZM6.71289 2.72266L6.13331 1.90774L6.13331 1.90774L6.71289 2.72266ZM7.91016 1.95508L7.41166 1.08819L7.41163 1.0882L7.91016 1.95508ZM8.53711 1.61426L8.08119 0.724235L8.08119 0.724238L8.53711 1.61426ZM8.85742 1.45508L8.42331 0.554219L8.42328 0.554234L8.85742 1.45508ZM13.376 0.118164L13.2499 -0.873855L13.2499 -0.873855L13.376 0.118164ZM14.4951 0.0195312L14.4445 -0.979185L14.4444 -0.979183L14.4951 0.0195312ZM15.2549 0L15.2549 -1L15.2549 -1L15.2549 0ZM242.126 0.00488281L242.151 -0.994875L242.139 -0.995035L242.126 0.00488281ZM249.396 2.13574L249.916 1.28114L249.916 1.28113L249.396 2.13574ZM250.287 2.72168L250.867 1.90674L250.867 1.90673L250.287 2.72168ZM250.854 3.14648L251.472 2.3602L251.472 2.3602L250.854 3.14648ZM251.401 3.59766L252.056 2.8418L252.056 2.8418L251.401 3.59766ZM253.778 6.21387L252.963 6.79337L252.963 6.79338L253.778 6.21387ZM255.197 8.68262L256.108 8.27066L256.108 8.27064L255.197 8.68262ZM255.725 10.0225L254.777 10.343L254.777 10.343L255.725 10.0225ZM255.837 10.3672L256.792 10.0702L256.792 10.0702L255.837 10.3672ZM256.481 13.9961L255.483 14.0467L255.483 14.0467L256.481 13.9961ZM256.495 14.374L257.495 14.3612L257.495 14.3487L256.495 14.374ZM256.5 14.7549L257.5 14.7549L257.5 14.7421L256.5 14.7549ZM256.5 157.142L257.5 157.142V157.142H256.5ZM256.481 157.9L257.48 157.951L257.48 157.951L256.481 157.9ZM256.27 159.753L255.285 159.577L255.285 159.577L256.27 159.753ZM256.2 160.115L257.18 160.316L257.18 160.316L256.2 160.115ZM255.837 161.529L256.792 161.826L256.792 161.826L255.837 161.529ZM255.604 162.215L256.544 162.559L256.544 162.559L255.604 162.215ZM255.197 163.214L256.108 163.626L256.108 163.626L255.197 163.214ZM253.569 165.97L254.37 166.569L254.37 166.569L253.569 165.97ZM253.23 166.404L254.008 167.033L254.008 167.033L253.23 166.404ZM248.778 170.115L249.256 170.994L249.256 170.994L248.778 170.115ZM247.817 170.593L248.229 171.504L248.229 171.504L247.817 170.593ZM242.505 171.877L242.556 172.876L242.556 172.876L242.505 171.877ZM184.938 171.896L184.938 172.896H184.938V171.896ZM170.184 157.142L169.184 157.142L169.184 157.142L170.184 157.142ZM184.938 142.386L184.938 141.386L184.938 141.386L184.938 142.386ZM226.99 142.386V143.386H227.99V142.386H226.99ZM226.99 29.5098H227.99V28.5098H226.99V29.5098ZM184.938 29.5098L184.938 30.5098H184.938V29.5098ZM170.184 14.7549L169.184 14.7549L169.184 14.7549L170.184 14.7549ZM184.938 0L184.938 -1L184.938 -1L184.938 0ZM241.745 0L241.758 -1H241.745V0ZM197.711 50.9053L197.711 49.9053H197.711V50.9053ZM197.711 120.991L197.711 121.991L197.711 121.991L197.711 120.991ZM69.8496 109.187L69.8496 108.187H69.8496V109.187ZM73.5381 112.876L74.5381 112.876V112.876H73.5381ZM69.8496 116.564L69.8496 117.564L69.8496 117.564L69.8496 116.564ZM48.4551 112.876L47.4551 112.876L47.4551 112.876L48.4551 112.876ZM58.0459 95.9072L58.046 94.9072H58.0459V95.9072ZM61.7344 99.5967L62.7344 99.5967V99.5967H61.7344ZM58.0459 103.285L58.0459 104.285L58.046 104.285L58.0459 103.285ZM36.6504 99.5967L35.6504 99.5967L35.6504 99.5967L36.6504 99.5967ZM63.9463 82.6279L63.9463 81.6279H63.9463V82.6279ZM67.6348 86.3164L68.6348 86.3164L68.6348 86.3164L67.6348 86.3164ZM63.9463 90.0049L63.9463 91.0049L63.9463 91.0049L63.9463 90.0049ZM42.5518 86.3164L41.5518 86.3164V86.3164H42.5518ZM69.8496 69.3486L69.8496 68.3486H69.8496V69.3486ZM73.5381 73.0371L74.5381 73.0371L74.5381 73.037L73.5381 73.0371ZM69.8496 76.7266L69.8496 77.7266L69.8496 77.7266L69.8496 76.7266ZM48.4551 73.0371L47.4551 73.037V73.0371H48.4551ZM68.374 59.7578L69.374 59.7579V59.7578H68.374ZM46.9785 63.4463L46.9784 64.4463H46.9785V63.4463ZM43.29 59.7578L42.29 59.7578L42.29 59.7579L43.29 59.7578ZM46.9785 56.0693L46.9785 55.0693L46.9784 55.0693L46.9785 56.0693ZM72.0615 0V1C79.6582 1 85.8163 7.15825 85.8164 14.7549L86.8164 14.7549L87.8164 14.7549C87.8163 6.0537 80.7627 -1 72.0615 -1V0ZM86.8164 14.7549L85.8164 14.7549C85.8163 22.3515 79.6582 28.5098 72.0615 28.5098V29.5098V30.5098C80.7627 30.5098 87.8163 23.4561 87.8164 14.7549L86.8164 14.7549ZM72.0615 29.5098V28.5098H30.0098V29.5098V30.5098H72.0615V29.5098ZM30.0098 29.5098H29.0098V142.386H30.0098H31.0098V29.5098H30.0098ZM30.0098 142.386V143.386H72.0615V142.386V141.386H30.0098V142.386ZM72.0615 142.386V143.386C79.6582 143.386 85.8164 149.544 85.8164 157.141L86.8164 157.141L87.8164 157.141C87.8164 148.439 80.7628 141.386 72.0615 141.386V142.386ZM86.8164 157.141L85.8164 157.141C85.8163 164.737 79.6582 170.896 72.0615 170.896V171.896V172.896C80.7627 172.896 87.8163 165.842 87.8164 157.141L86.8164 157.141ZM72.0615 171.896V170.896H15.3311V171.896V172.896H72.0615V171.896ZM15.3311 171.896L15.3258 170.896C15.2225 170.896 15.3175 170.896 15.2549 170.896V171.896V172.896C15.2775 172.896 15.2984 172.896 15.3109 172.896C15.326 172.896 15.3314 172.896 15.3363 172.895L15.3311 171.896ZM15.2549 171.896L15.2549 170.896C15.0239 170.896 14.7918 170.89 14.5585 170.878L14.5088 171.877L14.459 172.876C14.7199 172.889 14.9856 172.896 15.2549 172.896L15.2549 171.896ZM14.5088 171.877L14.5586 170.878C14.5472 170.878 14.5414 170.877 14.5239 170.876L14.4717 171.875L14.4195 172.874C14.4265 172.874 14.4457 172.875 14.459 172.876L14.5088 171.877ZM14.4717 171.875L14.5239 170.876C12.2314 170.756 10.0895 170.075 8.2294 168.967L7.71777 169.826L7.20614 170.685C9.33736 171.954 11.7935 172.736 14.4194 172.874L14.4717 171.875ZM7.71777 169.826L8.22938 168.967C7.71723 168.662 7.22709 168.327 6.76338 167.963L6.14551 168.749L5.52764 169.535C6.06161 169.955 6.62304 170.338 7.20616 170.685L7.71777 169.826ZM6.14551 168.749L6.76341 167.963C5.81003 167.214 4.95787 166.341 4.23152 165.37L3.43066 165.969L2.6298 166.568C3.46143 167.68 4.43669 168.678 5.52761 169.535L6.14551 168.749ZM3.43066 165.969L4.2315 165.37C3.63724 164.575 3.12695 163.714 2.71394 162.801L1.80273 163.213L0.891534 163.625C1.36502 164.672 1.94963 165.658 2.62983 166.568L3.43066 165.969ZM1.80273 163.213L2.71395 162.801C2.66884 162.701 2.62451 162.599 2.58021 162.494L1.65918 162.884L0.738154 163.273C0.787159 163.389 0.838134 163.507 0.891516 163.625L1.80273 163.213ZM1.65918 162.884L2.58019 162.494C2.49373 162.29 2.41202 162.082 2.33454 161.87L1.39551 162.214L0.456477 162.558C0.544409 162.798 0.638066 163.037 0.738169 163.273L1.65918 162.884ZM1.39551 162.214L2.33455 161.87C2.25701 161.658 2.18454 161.445 2.11798 161.231L1.16309 161.528L0.208197 161.825C0.285323 162.073 0.368517 162.317 0.456462 162.558L1.39551 162.214ZM1.16309 161.528L2.11797 161.231C2.05071 161.015 1.98858 160.798 1.93233 160.579L0.963867 160.828L-0.00459298 161.077C0.0604496 161.33 0.131756 161.58 0.208206 161.825L1.16309 161.528ZM0.963867 160.828L1.93234 160.579C1.87629 160.361 1.82564 160.139 1.77951 159.914L0.799805 160.114L-0.179901 160.315C-0.127806 160.569 -0.0697888 160.824 -0.00460442 161.077L0.963867 160.828ZM0.799805 160.114L1.7795 159.914C1.61928 159.131 1.52551 158.323 1.50456 157.496L0.504883 157.521L-0.494796 157.547C-0.470847 158.492 -0.363607 159.417 -0.179894 160.315L0.799805 160.114ZM0.504883 157.521L1.50456 157.496C1.50157 157.378 1.5 157.259 1.5 157.141L0.5 157.141L-0.5 157.141C-0.499998 157.277 -0.498197 157.412 -0.494797 157.547L0.504883 157.521ZM0.5 157.141H1.5V14.7549H0.5H-0.5V157.141H0.5ZM0.5 14.7549L1.5 14.7549C1.5 14.5157 1.50548 14.2795 1.51727 14.0467L0.518555 13.9961L-0.480165 13.9455C-0.493825 14.2152 -0.499998 14.4853 -0.5 14.7549L0.5 14.7549ZM0.518555 13.9961L1.51727 14.0467C1.54695 13.461 1.61399 12.8844 1.71489 12.3194L0.730469 12.1436L-0.253956 11.9677C-0.369315 12.6137 -0.446138 13.2739 -0.480164 13.9455L0.518555 13.9961ZM0.730469 12.1436L1.71489 12.3194C1.77561 11.9794 1.8479 11.6447 1.93233 11.3165L0.963867 11.0674L-0.00459628 10.8182C-0.102123 11.1973 -0.184882 11.581 -0.253955 11.9677L0.730469 12.1436ZM0.963867 11.0674L1.93233 11.3166C1.98857 11.0979 2.05073 10.8804 2.11797 10.6642L1.16309 10.3672L0.208206 10.0702C0.131767 10.316 0.0604398 10.5655 -0.00459105 10.8182L0.963867 11.0674ZM1.16309 10.3672L2.11796 10.6642C2.18455 10.4501 2.25704 10.2371 2.33454 10.0255L1.39551 9.68164L0.456473 9.33782C0.368514 9.57805 0.285307 9.82231 0.208209 10.0702L1.16309 10.3672ZM1.39551 9.68164L2.33453 10.0255C2.412 9.81393 2.49376 9.60561 2.58019 9.40125L1.65918 9.01172L0.738167 8.62219C0.638088 8.85881 0.54439 9.09772 0.456481 9.3378L1.39551 9.68164ZM1.65918 9.01172L2.58019 9.40126C3.05843 8.27053 3.68397 7.2163 4.43277 6.26337L3.64648 5.64551L2.86019 5.02765C2.00305 6.11846 1.2864 7.32597 0.738171 8.62218L1.65918 9.01172ZM3.64648 5.64551L4.43276 6.26339C4.77327 5.83007 5.13934 5.41746 5.5284 5.02839L4.82129 4.32129L4.11418 3.61419C3.66877 4.0596 3.24984 4.53181 2.86021 5.02763L3.64648 5.64551ZM4.82129 4.32129L5.5284 5.0284C5.60631 4.95048 5.68507 4.8735 5.7643 4.79795L5.07422 4.07422L4.38414 3.35049C4.29291 3.43747 4.2028 3.52556 4.11418 3.61418L4.82129 4.32129ZM5.07422 4.07422L5.76428 4.79797C5.92351 4.64615 6.08677 4.49783 6.25338 4.3535L5.59863 3.59766L4.94389 2.84181C4.75346 3.00676 4.56665 3.17647 4.38416 3.35047L5.07422 4.07422ZM5.59863 3.59766L6.25337 4.35351C6.4179 4.21099 6.58827 4.07136 6.76342 3.9337L6.14551 3.14746L5.52759 2.36122C5.33141 2.5154 5.13604 2.67536 4.94389 2.8418L5.59863 3.59766ZM6.14551 3.14746L6.7634 3.93372C6.93732 3.79705 7.11373 3.6647 7.29248 3.53757L6.71289 2.72266L6.13331 1.90774C5.92684 2.05459 5.72489 2.20617 5.52761 2.3612L6.14551 3.14746ZM6.71289 2.72266L7.29247 3.53757C7.6521 3.2818 8.02472 3.04277 8.40868 2.82195L7.91016 1.95508L7.41163 1.0882C6.97172 1.34119 6.54502 1.61493 6.13331 1.90774L6.71289 2.72266ZM7.91016 1.95508L8.40865 2.82197C8.60104 2.71134 8.79599 2.60522 8.99303 2.50428L8.53711 1.61426L8.08119 0.724238C7.85432 0.840451 7.63099 0.962063 7.41166 1.08819L7.91016 1.95508ZM8.53711 1.61426L8.99303 2.50428C9.09169 2.45374 9.19139 2.4042 9.29156 2.35592L8.85742 1.45508L8.42328 0.554234C8.30863 0.609486 8.19441 0.666238 8.08119 0.724235L8.53711 1.61426ZM8.85742 1.45508L9.29153 2.35594C10.594 1.72829 12.0107 1.29974 13.5021 1.11018L13.376 0.118164L13.2499 -0.873855C11.5408 -0.656625 9.91641 -0.165284 8.42331 0.554219L8.85742 1.45508ZM13.376 0.118164L13.5021 1.11018C13.8448 1.06662 14.193 1.03615 14.5458 1.01825L14.4951 0.0195312L14.4444 -0.979183C14.0435 -0.958837 13.6449 -0.924062 13.2499 -0.873855L13.376 0.118164ZM14.4951 0.0195312L14.5458 1.01825C14.7813 1.0063 15.0179 1 15.2549 1L15.2549 0L15.2549 -1C14.9825 -0.999995 14.7121 -0.992757 14.4445 -0.979185L14.4951 0.0195312ZM15.2549 0V1H72.0615V0V-1H15.2549V0ZM242.126 0.00488281L242.101 1.00456C244.579 1.06735 246.893 1.78463 248.877 2.99035L249.396 2.13574L249.916 1.28113C247.641 -0.100992 244.988 -0.922932 242.151 -0.994796L242.126 0.00488281ZM249.396 2.13574L248.877 2.99035C249.161 3.16285 249.438 3.34507 249.708 3.53663L250.287 2.72168L250.867 1.90673C250.558 1.68692 250.24 1.47829 249.916 1.28114L249.396 2.13574ZM250.287 2.72168L249.708 3.53662C249.886 3.66372 250.063 3.79601 250.237 3.93277L250.854 3.14648L251.472 2.3602C251.275 2.2052 251.073 2.05366 250.867 1.90674L250.287 2.72168ZM250.854 3.14648L250.237 3.93277C250.41 4.06915 250.58 4.20945 250.747 4.35352L251.401 3.59766L252.056 2.8418C251.865 2.67654 251.671 2.51597 251.472 2.3602L250.854 3.14648ZM251.401 3.59766L250.747 4.35351C251.579 5.07448 252.324 5.89394 252.963 6.79337L253.778 6.21387L254.593 5.63436C253.861 4.60495 253.009 3.6671 252.056 2.8418L251.401 3.59766ZM253.778 6.21387L252.963 6.79338C253.475 7.51276 253.919 8.28288 254.286 9.09459L255.197 8.68262L256.108 8.27064C255.688 7.33965 255.179 6.45748 254.593 5.63435L253.778 6.21387ZM255.197 8.68262L254.286 9.09458C254.469 9.49959 254.633 9.9163 254.777 10.343L255.725 10.0225L256.672 9.7019C256.507 9.21472 256.319 8.73692 256.108 8.27066L255.197 8.68262ZM255.725 10.0225L254.777 10.343C254.814 10.4515 254.849 10.5583 254.882 10.6642L255.837 10.3672L256.792 10.0702C256.753 9.94498 256.712 9.82201 256.672 9.70189L255.725 10.0225ZM255.837 10.3672L254.882 10.6642C255.217 11.7404 255.423 12.8738 255.483 14.0467L256.481 13.9961L257.48 13.9455C257.412 12.6032 257.176 11.3043 256.792 10.0702L255.837 10.3672ZM256.481 13.9961L255.483 14.0467C255.488 14.1605 255.492 14.2775 255.495 14.3994L256.495 14.374L257.495 14.3487C257.491 14.218 257.487 14.0826 257.48 13.9455L256.481 13.9961ZM256.495 14.374L255.495 14.3868L255.5 14.7677L256.5 14.7549L257.5 14.7421L257.495 14.3612L256.495 14.374ZM256.5 14.7549H255.5V157.142H256.5H257.5V14.7549H256.5ZM256.5 157.142L255.5 157.142C255.5 157.381 255.495 157.617 255.483 157.85L256.481 157.9L257.48 157.951C257.494 157.681 257.5 157.411 257.5 157.142L256.5 157.142ZM256.481 157.9L255.483 157.85C255.453 158.436 255.386 159.012 255.285 159.577L256.27 159.753L257.254 159.929C257.369 159.283 257.446 158.623 257.48 157.951L256.481 157.9ZM256.27 159.753L255.285 159.577C255.265 159.69 255.243 159.803 255.22 159.915L256.2 160.115L257.18 160.316C257.206 160.187 257.231 160.058 257.254 159.929L256.27 159.753ZM256.2 160.115L255.221 159.915C255.129 160.363 255.016 160.802 254.882 161.232L255.837 161.529L256.792 161.826C256.945 161.332 257.075 160.828 257.18 160.316L256.2 160.115ZM255.837 161.529L254.882 161.232C254.815 161.446 254.743 161.659 254.665 161.871L255.604 162.215L256.544 162.559C256.631 162.318 256.715 162.074 256.792 161.826L255.837 161.529ZM255.604 162.215L254.665 161.871C254.549 162.188 254.423 162.499 254.286 162.802L255.197 163.214L256.108 163.626C256.267 163.276 256.412 162.919 256.544 162.559L255.604 162.215ZM255.197 163.214L254.286 162.802C253.873 163.715 253.363 164.576 252.769 165.371L253.569 165.97L254.37 166.569C255.05 165.659 255.635 164.673 256.108 163.626L255.197 163.214ZM253.569 165.97L252.769 165.371C252.668 165.506 252.562 165.64 252.452 165.776L253.23 166.404L254.008 167.033C254.129 166.883 254.251 166.728 254.37 166.569L253.569 165.97ZM253.23 166.404L252.452 165.776C251.314 167.186 249.903 168.366 248.301 169.237L248.778 170.115L249.256 170.994C251.091 169.997 252.706 168.646 254.008 167.033L253.23 166.404ZM248.778 170.115L248.301 169.237C248.009 169.395 247.71 169.544 247.405 169.682L247.817 170.593L248.229 171.504C248.578 171.346 248.921 171.176 249.256 170.994L248.778 170.115ZM247.817 170.593L247.405 169.682C245.883 170.37 244.213 170.789 242.454 170.878L242.505 171.877L242.556 172.876C244.569 172.774 246.484 172.293 248.229 171.504L247.817 170.593ZM242.505 171.877L242.454 170.878C242.219 170.89 241.982 170.896 241.745 170.896V171.896V172.896C242.018 172.896 242.288 172.889 242.556 172.876L242.505 171.877ZM241.745 171.896V170.896H184.938V171.896V172.896H241.745V171.896ZM184.938 171.896L184.938 170.896C177.342 170.896 171.184 164.738 171.184 157.142L170.184 157.142L169.184 157.142C169.184 165.843 176.237 172.896 184.938 172.896L184.938 171.896ZM170.184 157.142H171.184C171.184 149.545 177.342 143.386 184.938 143.386L184.938 142.386L184.938 141.386C176.237 141.386 169.184 148.44 169.184 157.142H170.184ZM184.938 142.386V143.386H226.99V142.386V141.386H184.938V142.386ZM226.99 142.386H227.99V29.5098H226.99H225.99V142.386H226.99ZM226.99 29.5098V28.5098H184.938V29.5098V30.5098H226.99V29.5098ZM184.938 29.5098L184.938 28.5098C177.342 28.5096 171.184 22.3514 171.184 14.7549L170.184 14.7549L169.184 14.7549C169.184 23.456 176.237 30.5096 184.938 30.5098L184.938 29.5098ZM170.184 14.7549L171.184 14.7549C171.184 7.15829 177.342 1.00012 184.938 1L184.938 0L184.938 -1C176.237 -0.999859 169.184 6.05369 169.184 14.7549L170.184 14.7549ZM184.938 0V1H241.745V0V-1H184.938V0ZM241.745 0L241.732 0.999918L242.113 1.0048L242.126 0.00488281L242.139 -0.995035L241.758 -0.999918L241.745 0ZM197.711 50.9053L197.711 51.9053C205.995 51.9054 212.711 58.6211 212.711 66.9053H213.711H214.711C214.711 57.5165 207.1 49.9055 197.711 49.9053L197.711 50.9053ZM213.711 66.9053H212.711V104.991H213.711H214.711V66.9053H213.711ZM213.711 104.991H212.711C212.711 113.275 205.995 119.991 197.711 119.991L197.711 120.991L197.711 121.991C207.1 121.991 214.711 114.38 214.711 104.991H213.711ZM197.711 120.991V119.991H94.7021V120.991V121.991H197.711V120.991ZM94.7021 120.991V119.991C86.4179 119.991 79.7021 113.275 79.7021 104.991H78.7021H77.7021C77.7021 114.38 85.3133 121.991 94.7021 121.991V120.991ZM78.7021 104.991H79.7021V66.9053H78.7021H77.7021V104.991H78.7021ZM78.7021 66.9053H79.7021C79.7021 58.621 86.4179 51.9053 94.7021 51.9053V50.9053V49.9053C85.3133 49.9053 77.7021 57.5164 77.7021 66.9053H78.7021ZM94.7021 50.9053V51.9053H197.711V50.9053V49.9053H94.7021V50.9053ZM69.8496 109.187L69.8496 110.187C71.3342 110.187 72.5381 111.391 72.5381 112.876H73.5381H74.5381C74.5381 110.287 72.4395 108.187 69.8496 108.187L69.8496 109.187ZM73.5381 112.876L72.5381 112.876C72.5379 114.361 71.3343 115.564 69.8496 115.564L69.8496 116.564L69.8496 117.564C72.4391 117.564 74.5378 115.465 74.5381 112.876L73.5381 112.876ZM69.8496 116.564V115.564H52.1436V116.564V117.564H69.8496V116.564ZM52.1436 116.564V115.564C50.6588 115.564 49.4552 114.361 49.4551 112.876L48.4551 112.876L47.4551 112.876C47.4554 115.465 49.5541 117.564 52.1436 117.564V116.564ZM48.4551 112.876H49.4551C49.4551 111.391 50.6589 110.187 52.1436 110.187V109.187V108.187C49.5537 108.187 47.4551 110.287 47.4551 112.876H48.4551ZM52.1436 109.187V110.187H69.8496V109.187V108.187H52.1436V109.187ZM58.0459 95.9072L58.0458 96.9072C59.5304 96.9073 60.7344 98.1115 60.7344 99.5967H61.7344H62.7344C62.7344 97.0075 60.6356 94.9074 58.046 94.9072L58.0459 95.9072ZM61.7344 99.5967L60.7344 99.5966C60.7343 101.081 59.5306 102.285 58.0458 102.285L58.0459 103.285L58.046 104.285C60.6352 104.285 62.7342 102.186 62.7344 99.5967L61.7344 99.5967ZM58.0459 103.285V102.285H40.3398V103.285V104.285H58.0459V103.285ZM40.3398 103.285V102.285C38.8547 102.285 37.6505 101.081 37.6504 99.5966L36.6504 99.5967L35.6504 99.5967C35.6506 102.186 37.7507 104.285 40.3398 104.285V103.285ZM36.6504 99.5967H37.6504C37.6504 98.1117 38.8549 96.9072 40.3398 96.9072V95.9072V94.9072C37.7503 94.9072 35.6504 97.0071 35.6504 99.5967H36.6504ZM40.3398 95.9072V96.9072H58.0459V95.9072V94.9072H40.3398V95.9072ZM63.9463 82.6279L63.9463 83.6279C65.4311 83.628 66.6347 84.8316 66.6348 86.3165L67.6348 86.3164L68.6348 86.3164C68.6346 83.727 66.5357 81.628 63.9463 81.6279L63.9463 82.6279ZM67.6348 86.3164H66.6348C66.6348 87.8013 65.4312 89.0048 63.9463 89.0049L63.9463 90.0049L63.9463 91.0049C66.5358 91.0048 68.6348 88.9059 68.6348 86.3164H67.6348ZM63.9463 90.0049V89.0049H46.2402V90.0049V91.0049H63.9463V90.0049ZM46.2402 90.0049V89.0049C44.7553 89.0049 43.5518 87.8014 43.5518 86.3164H42.5518H41.5518C41.5518 88.9059 43.6507 91.0049 46.2402 91.0049V90.0049ZM42.5518 86.3164L43.5518 86.3165C43.5518 84.8315 44.7554 83.6279 46.2402 83.6279V82.6279V81.6279C43.6507 81.6279 41.5519 83.727 41.5518 86.3164L42.5518 86.3164ZM46.2402 82.6279V83.6279H63.9463V82.6279V81.6279H46.2402V82.6279ZM69.8496 69.3486L69.8496 70.3486C71.3343 70.3486 72.5379 71.5522 72.5381 73.0372L73.5381 73.0371L74.5381 73.037C74.5378 70.4478 72.4391 68.3486 69.8496 68.3486L69.8496 69.3486ZM73.5381 73.0371H72.5381C72.5381 74.5224 71.3342 75.7266 69.8496 75.7266L69.8496 76.7266L69.8496 77.7266C72.4395 77.7266 74.5381 75.6263 74.5381 73.0371H73.5381ZM69.8496 76.7266V75.7266H52.1436V76.7266V77.7266H69.8496V76.7266ZM52.1436 76.7266V75.7266C50.6589 75.7266 49.4551 74.5224 49.4551 73.0371H48.4551H47.4551C47.4551 75.6263 49.5537 77.7266 52.1436 77.7266V76.7266ZM48.4551 73.0371L49.4551 73.0372C49.4552 71.5522 50.6588 70.3486 52.1436 70.3486V69.3486V68.3486C49.554 68.3486 47.4553 70.4478 47.4551 73.037L48.4551 73.0371ZM52.1436 69.3486V70.3486H69.8496V69.3486V68.3486H52.1436V69.3486ZM64.6846 56.0693V57.0693C66.1699 57.0693 67.374 58.2732 67.374 59.7578H68.374H69.374C69.374 57.1679 67.2738 55.0693 64.6846 55.0693V56.0693ZM68.374 59.7578L67.374 59.7578C67.374 61.2424 66.1698 62.4463 64.6846 62.4463V63.4463V64.4463C67.2737 64.4463 69.3739 62.3476 69.374 59.7579L68.374 59.7578ZM64.6846 63.4463V62.4463H46.9785V63.4463V64.4463H64.6846V63.4463ZM46.9785 63.4463L46.9786 62.4463C45.4937 62.4462 44.2901 61.2426 44.29 59.7578L43.29 59.7578L42.29 59.7579C42.2901 62.3472 44.3892 64.4461 46.9784 64.4463L46.9785 63.4463ZM43.29 59.7578H44.29C44.29 58.273 45.4936 57.0694 46.9786 57.0693L46.9785 56.0693L46.9784 55.0693C44.3892 55.0695 42.29 57.1683 42.29 59.7578H43.29ZM46.9785 56.0693V57.0693H64.6846V56.0693V55.0693H46.9785V56.0693Z" fill="black" mask="url(#path-1-inside-1_83_5)"/>
</g>
</g>
<defs>
<filter id="filter0_d_83_5" x="-3.5" y="0" width="264" height="179.896" filterUnits="userSpaceOnUse" color-interpolation-filters="sRGB">
<feFlood flood-opacity="0" result="BackgroundImageFix"/>
<feColorMatrix in="SourceAlpha" type="matrix" values="0 0 0 0 0 0 0 0 0 0 0 0 0 0 0 0 0 0 127 0" result="hardAlpha"/>
<feOffset dy="4"/>
<feGaussianBlur stdDeviation="2"/>
<feComposite in2="hardAlpha" operator="out"/>
<feColorMatrix type="matrix" values="0 0 0 0 0 0 0 0 0 0 0 0 0 0 0 0 0 0 0.25 0"/>
<feBlend mode="normal" in2="BackgroundImageFix" result="effect1_dropShadow_83_5"/>
<feBlend mode="normal" in="SourceGraphic" in2="effect1_dropShadow_83_5" result="shape"/>
</filter>
<clipPath id="clip0_83_5">
<rect width="257" height="172" fill="white"/>
</clipPath>
</defs>
</svg>
